<svg xmlns="http://www.w3.org/2000/svg" viewBox="0 0 792 185.7">
  <g>
    <path d="M119.6 128.6c-.5 2-1.2 4.3-2 6-.3.8-.5 1.4-.5 2l-2.5 2.6c-7.7 6.4-13.6 10-23 12.8-3.5 1.2-10.7 3-20 2.8l-14.2 7.7c17.3 3.8 31.4.3 37-1.5 10.5-3.5 17.6-7.4 26-14.5 2-1.5 11-9.4 17.2-21.7 1.2-2.3 2.3-4.8 3.3-7.4l-21.2 11.2zM69.7 28.3H74c-1.6.3-3.3 1-4.8 1.5l12.7 7c9.8-.4 20 4 26.7 11l-4.8.8 21.4 11.7c0-.2 0-.5-.2-.7l2.3 1.8 14.3 7.7-.5-1.5c-.2-.3-.3-.7-.5-.8l-.5-1.3c-4-11.8-12-22-22-30l-1-1c-15.5-12-31-14.5-38.8-15h-1.2c-4.8-.3-9.5-.3-14 .3l-1 .2c-2 .2-3.7.6-5.2 1-1.2.2-2.4.6-3.5 1l13.3 7c1-.6 2-.7 3-.7zM14 115c-2-5-3.5-11.2-3.8-13.7-.8-6-.8-6-.8-11.7 0-1.8.2-4.4.5-6.4.6-4.4 1.5-9.5 4.3-16.4V48C12 51 10 54.6 8 58.4 2.5 68.8 1.2 76.3.4 81.8c-.3 2.4-.5 5.7-.5 8 0 6.2 0 6.2.8 12.7.5 3.8 2.5 12.3 5.3 18.3 2.2 4.8 4.2 8.4 6.7 11.8l.8 1 1 1.3v-21l-.5 1z"/>
    <path d="M122 81l-3 4c3.4 6.6 6 13 8 19.4.7-1 1.5-2 2-3 5.7-9.4 6.8-21 3-32.4-.4-.3-.6-.8-.8-1.2-.3-1-.8-2-1.2-2.8-.5-.5-.8-1-1-1.5-.3-.8-.8-1.5-1.5-2.3l-2-1.2c1.5 7.6.3 14.8-3.5 21zM65 28.6h-.7c-3 .5-6 1.2-9 2 2.5.6 5 1.4 7.4 2.4 2-1.3 4-2.5 6.4-3.5L67 28.2c-.5.2-1.2.4-1.8.4zM140.8 117.2l45-24.5L142 69c6.2 19.3 3.4 36-1.2 48.2zM78.8 36.8c-1.8.3-3.6.7-5.3 1.3 6 3.6 12.3 8 18.4 13.4 4.2-1.3 8-2.3 12-2.8L82 36.8c-1-.2-2.2-.2-3.2 0zM100 129.2c-25 3.5-51.6-8.2-67-27.6-6 7-10 14-11.4 20.2-.5 2.5-.7 4.6-.3 6.4 1 1.3 2 2.8 3.5 4.3 3.6 4.3 13.6 14.6 30.4 19.6 6 1.7 11.3 2.6 16.4 2.6l48.2-26c.3-2 .7-4 .7-6.2-6.2 3.5-13 5.8-20.5 6.8zM34.2 86.3c5.8-5.6 12.3-11 19.4-15.8l-1.3-3c-3-9-2.3-18.2 2-25.6l1-1.4c-5.4-1.5-10-2-14.4-1.5-2.7 2.4-5 5.2-6.8 8.2-3.5 5.6-5.3 12.2-5.3 19 0 4.7.7 9.4 2.4 14.2l2.8 6zM61.2 64l.5 1c6.4-3.8 13.2-7.3 20-10-5.7-4.7-11.4-8.5-17-11-.7.7-1.5 1.5-2 2.5-3.2 5-3.7 11.4-1.5 17.6zM97.8 85.8c3.3-.5 6.2-1.5 8.7-2.8-4.6-7.4-10.4-14.6-17-21l-3.4 1.3c-6.6 2.6-13.2 6-19.6 10 7.4 9 19.8 14.2 31.4 12.5zM35.5 29c5-3 9.7-5.5 18.3-7.8L14.5 0v48c9-12.2 19.5-18.3 21-19zM114 76c3-5 3.6-11.2 1.3-17.5l-.7-1.6c-4.3 0-9.4.6-15 2 5.3 5.5 10 11.4 14 17.5l.4-.4z"/>
    <path d="M98.7 120c8-1.2 14.8-3.8 20.4-8-1.4-6.6-4-13.7-7.6-21-3.6 2-7.7 3.6-12.2 4-15 2-31-5-40.5-16.6-7 5-13.6 10.5-19.2 16 13 18 36.8 28.7 59.2 25.6zM27.5 93.5c-1.8-3.3-3.5-6.6-4.6-10-3.6-9.7-4-19.6-2-28.6-1.5 2.2-3.2 4.8-4.5 7.6-.8 1.6-1.5 3-2 4.4v47c2.6-6.6 7-13.7 13-20.5zM132.4 112.8c-1 1.2-2 2-3 3 0 1.3 0 2.4.2 3.6 1-2 2-4.3 2.8-6.6zM17.4 138.8c-1.2-1.3-2-2.6-3-4v51L57 162.4l-4.7-1.2c-19-5.6-30.8-17.6-35-22.5zM145 155c0-6.2 5-11.3 11.4-11.3s11.5 5 11.5 11.2c0 6-5.2 11-11.6 11-6.3.2-11.5-5-11.5-11zm2.2 0c0 5 4 9 9.4 9 5 0 9.2-4 9.2-9s-4-9-9.2-9c-5.3 0-9.4 4-9.4 9zm15 6.3H160l-3.6-5.8H154v5.8h-2v-12.5h6c1 0 2 0 3 .7 1 .5 1.5 1.6 1.5 2.6 0 2.6-1.8 3.6-4 3.6l3.6 5.7zm-6-7.4c1.8 0 4.3.2 4.3-2 0-1.7-1.5-2-3-2h-3.3v4h2z"/>
    <g>
      <path d="M275 62.3h32.6V78h.5c4.2-13 19-18.2 32.2-18.2v33.5c-4.6-1.6-9-2.8-13.5-2.8-11 0-14.6 2.8-18.3 8v66.7h-33.2v-103h-.2zM348.6 62.3h33.2v103h-33.2v-103zM393.2 62.3h33.2V76h.3C433.7 65.7 444 60 456 60c10 0 20 6.4 20.7 16.3h.3c7-10.4 17.4-16.2 29.3-16.2 13.3 0 23.2 7.2 23.2 22V165h-33.2v-73c0-5.5-1.8-9-8-9-3.6 0-6.5 1.4-8.7 4.2l-1.8 2.5V165h-33.2v-73c0-5.5-1.8-9-8-9-3.6 0-6.5 1.4-8.8 4.2L426 90V165h-33.2v-103h.4zM541 19.2h33v49h.6c4.8-5 13.3-8.4 20-8.4 23 0 35.5 23 35.5 52.6 0 23.5-9.8 54-37.6 54-13 0-21.4-6.2-28-16l-6.2 14.7H541V19.3zm33 113c-.6 8.6 4.7 13.3 11 13.3 9.2 0 10.5-9.2 10-28.3v-7.7c0-20.6 0-31.2-10.2-31.2-4 0-7.2 2.5-9.2 4l-1.7 2v48h-.2zM638.6 19.2h33.2v146h-33.2v-146zM713.7 118c0 9 1.8 24.3 15 24.3 8 0 14.8-5.8 16.8-14l22.4 8c-1.6 5-11.8 28.2-41.4 28.2-31.7 0-46.2-25.7-46.2-54 0-29.2 15-54 45.7-54 32.2 0 43.2 27.6 43.2 54.4v6.8h-55.4v.2zm25-19.7c-.3-9.7-1-20.7-12.6-20.7-9.3 0-12.2 11-12.2 20.7h24.8zM348.6 18.6H382v29.6h-33.4z"/>
      <path d="M186.5 18.7h103V47h-33.2v117.7h-37V47h-33V18.7h.2zM769 155c0-6.2 5-11.3 11.5-11.3 6.4 0 11.5 5 11.5 11.2 0 6-5 11-11.5 11-6.3.2-11.5-5-11.5-11zm2.3 0c0 5 4 9 9.4 9 5 0 9.2-4 9.2-9s-4.2-9-9.3-9c-5.3 0-9.4 4-9.4 9zm15 6.3H784l-3.5-5.8h-2.3v5.8h-2v-12.5h5.6c1 0 2 0 3 .7 1 .5 1.6 1.6 1.6 2.6 0 2.6-1.8 3.6-4 3.6l3.8 5.7zm-6-7.4c1.8 0 4.3.2 4.3-2 0-1.7-1.5-2-3-2h-3.3v4h2z"/>
    </g>
  </g>
</svg>
